<svg width="160" height="159" viewBox="0 0 160 159" fill="none" xmlns="http://www.w3.org/2000/svg">
<path d="M14 5H146C150.971 5 155 9.02944 155 14V47C155 51.9706 150.971 56 146 56H14C9.02944 56 5 51.9706 5 47V14C5 9.02944 9.02944 5 14 5Z" fill="white" stroke="#07BCC2" stroke-width="10"/>
<path d="M14 122H146C150.971 122 155 126.029 155 131V145C155 149.971 150.971 154 146 154H14C9.02944 154 5 149.971 5 145V131C5 126.029 9.02944 122 14 122Z" fill="#EEEEEE" stroke="#B9B9B9" stroke-width="10"/>
<path d="M14 73H146C150.971 73 155 77.0294 155 82V96C155 100.971 150.971 105 146 105H14C9.02944 105 5 100.971 5 96V82C5 77.0294 9.02944 73 14 73Z" fill="#EEEEEE" stroke="#B9B9B9" stroke-width="10"/>
</svg>
